<svg width="23" height="23" viewBox="0 0 23 23" fill="none" xmlns="http://www.w3.org/2000/svg">
<path d="M9.89279 1.82175L10.9939 0.692064C11.4601 0.213729 12.214 0.213729 12.6752 0.692064L22.317 10.5794C22.7832 11.0577 22.7832 11.8312 22.317 12.3044L12.6752 22.1968C12.209 22.6751 11.4551 22.6751 10.9939 22.1968L9.89279 21.0671C9.42162 20.5837 9.43153 19.7949 9.91263 19.3217L15.8891 13.4799H1.63479C0.975138 13.4799 0.444443 12.9354 0.444443 12.2586V10.6302C0.444443 9.95344 0.975138 9.40896 1.63479 9.40896H15.8891L9.91263 3.56716C9.42657 3.09392 9.41666 2.30517 9.89279 1.82175Z" fill="white"/>
</svg>
