<svg width="142" height="30" viewBox="0 0 142 30" fill="none" xmlns="http://www.w3.org/2000/svg">
<mask id="mask0_3_545" style="mask-type:luminance" maskUnits="userSpaceOnUse" x="0" y="0" width="142" height="30">
<path d="M142 0H0V30H142V0Z" fill="white"/>
</mask>
<g mask="url(#mask0_3_545)">
<path d="M17.6752 12.2558C17.6752 5.48852 23.2411 0 30.1037 0C36.9663 0 42.5323 5.48852 42.5323 12.2558C42.5323 20.459 35.3703 23.5868 30.5625 29.7049C30.4229 29.882 30.3032 29.9803 30.1037 29.9803C29.9042 29.9803 29.7844 29.8623 29.6448 29.7049C24.837 23.5672 17.6752 20.459 17.6752 12.2558ZM15.78 12.2558C15.78 9.89514 16.3785 7.67214 17.4159 5.70494C17.5555 5.44918 17.4956 5.11477 17.2762 4.91803C15.76 3.50164 14.2438 2.00656 12.8873 0.295082C12.7477 0.118033 12.628 0.0196726 12.4285 0.0196726C12.2289 0.0196726 12.1093 0.137705 11.9696 0.295082C7.18179 6.4328 0 9.54095 0 17.7442C0 24.5115 5.5659 30 12.4285 30C16.3187 30 19.7698 28.2492 22.0441 25.4951C22.2636 25.2394 22.2436 24.8459 21.9843 24.6098C18.7325 21.4033 15.78 17.882 15.78 12.2558ZM49.315 10.4656H53.7836C54.8607 10.4656 55.8385 10.682 56.6762 11.0951C57.5143 11.5082 58.1724 12.0984 58.6514 12.8656C59.13 13.6328 59.3494 14.4984 59.3494 15.5016C59.3494 16.5049 59.1103 17.3705 58.6514 18.1377C58.1925 18.9049 57.534 19.4951 56.6762 19.9082C55.8385 20.3214 54.8607 20.5377 53.7836 20.5377H49.3347V10.4656H49.315ZM53.6837 18.9442C54.422 18.9442 55.0805 18.8065 55.659 18.5115C56.2177 18.236 56.6564 17.8229 56.9757 17.3115C57.2747 16.7803 57.4345 16.1902 57.4345 15.5016C57.4345 14.8132 57.2747 14.2033 56.9757 13.6918C56.6762 13.1606 56.2374 12.7672 55.659 12.4918C55.0805 12.2164 54.4421 12.0591 53.6837 12.0591H51.2101V18.9442H53.6837ZM62.3221 20.1049C61.6837 19.7705 61.2047 19.2984 60.8456 18.7082C60.4866 18.118 60.307 17.4295 60.307 16.682C60.307 15.9344 60.4866 15.2459 60.8456 14.6558C61.2047 14.0656 61.6837 13.5935 62.3221 13.259C62.9606 12.9246 63.6586 12.7476 64.4564 12.7476C65.2546 12.7476 65.9727 12.9246 66.591 13.259C67.2294 13.5935 67.7085 14.0656 68.0675 14.6558C68.4266 15.2459 68.6061 15.9147 68.6061 16.682C68.6061 17.4295 68.4266 18.118 68.0675 18.7082C67.7085 19.2984 67.2294 19.7705 66.591 20.1049C65.953 20.4394 65.2546 20.6164 64.4564 20.6164C63.6586 20.6164 62.9606 20.4394 62.3221 20.1049ZM66.1124 18.4132C66.5512 17.9803 66.7706 17.3902 66.7706 16.682C66.7706 15.9738 66.5512 15.3836 66.1124 14.9508C65.6736 14.518 65.1149 14.282 64.4564 14.282C63.7781 14.282 63.2395 14.4984 62.8008 14.9508C62.362 15.3836 62.1623 15.9738 62.1623 16.682C62.1623 17.3902 62.3817 17.9803 62.8008 18.4132C63.2395 18.8459 63.7781 19.082 64.4564 19.082C65.1149 19.082 65.6736 18.8656 66.1124 18.4132ZM76.7655 13.6132C77.3641 14.1836 77.6632 15.0098 77.6632 16.1312V20.518H75.8477V16.3476C75.8477 15.6786 75.6879 15.1672 75.3691 14.8328C75.0499 14.4984 74.591 14.3214 73.9924 14.3214C73.3142 14.3214 72.7953 14.518 72.3964 14.9115C72.0176 15.3049 71.8179 15.8754 71.8179 16.6229V20.4984H70.0025V12.8262H71.7382V13.8098C72.0373 13.4558 72.4165 13.1803 72.8754 13.0033C73.3339 12.8262 73.8528 12.7279 74.4115 12.7279C75.3888 12.7672 76.1669 13.0426 76.7655 13.6132ZM80.9748 20.1049C80.3364 19.7705 79.8574 19.2984 79.4983 18.7082C79.1393 18.118 78.9597 17.4295 78.9597 16.682C78.9597 15.9344 79.1393 15.2459 79.4983 14.6558C79.8574 14.0656 80.3364 13.5935 80.9748 13.259C81.6132 12.9246 82.3112 12.7476 83.1091 12.7476C83.9073 12.7476 84.6254 12.9246 85.2437 13.259C85.8821 13.5935 86.3611 14.0656 86.7202 14.6558C87.0793 15.2459 87.2588 15.9147 87.2588 16.682C87.2588 17.4295 87.0793 18.118 86.7202 18.7082C86.3611 19.2984 85.8821 19.7705 85.2437 20.1049C84.6057 20.4394 83.9073 20.6164 83.1091 20.6164C82.3112 20.6164 81.6132 20.4394 80.9748 20.1049ZM84.7651 18.4132C85.2039 17.9803 85.4232 17.3902 85.4232 16.682C85.4232 15.9738 85.2039 15.3836 84.7651 14.9508C84.3263 14.518 83.7676 14.282 83.1091 14.282C82.4312 14.282 81.8922 14.4984 81.4534 14.9508C81.0147 15.3836 80.815 15.9738 80.815 16.682C80.815 17.3902 81.0344 17.9803 81.4534 18.4132C81.8922 18.8459 82.4312 19.082 83.1091 19.082C83.7676 19.082 84.3263 18.8656 84.7651 18.4132ZM93.1439 12.7672V14.4786C92.9841 14.4591 92.8448 14.4394 92.7248 14.4394C92.0067 14.4394 91.4681 14.6361 91.0692 15.0492C90.6703 15.4623 90.4706 16.0524 90.4706 16.8V20.518H88.6552V12.8459H90.3909V13.9672C90.8897 13.1606 91.8071 12.7672 93.1439 12.7672ZM95.5776 20.3214C94.8394 20.1049 94.2609 19.8098 93.8423 19.4361L94.5004 17.9803C94.9194 18.3147 95.4383 18.5705 96.0369 18.7868C96.6354 18.9836 97.2537 19.1016 97.8724 19.1016C98.63 19.1016 99.1884 18.9836 99.5675 18.7476C99.9471 18.5115 100.126 18.1967 100.126 17.8033C100.126 17.5082 100.026 17.2721 99.807 17.0951C99.6078 16.918 99.3284 16.7606 99.0092 16.6623C98.69 16.5639 98.2508 16.4459 97.6921 16.3082C96.9144 16.1312 96.2961 15.9541 95.7978 15.7574C95.3184 15.5803 94.8993 15.2853 94.5604 14.9115C94.2211 14.518 94.0415 14.0065 94.0415 13.3377C94.0415 12.7868 94.2013 12.2754 94.5004 11.8229C94.7995 11.3705 95.2584 11.0164 95.8767 10.7409C96.4954 10.4656 97.2537 10.3476 98.1514 10.3476C98.7701 10.3476 99.3876 10.4262 99.9862 10.5836C100.585 10.7409 101.104 10.9574 101.542 11.2524L100.944 12.7082C100.505 12.4524 100.026 12.2558 99.5478 12.118C99.0692 11.9803 98.5898 11.9214 98.1317 11.9214C97.393 11.9214 96.8343 12.0394 96.4551 12.2951C96.0767 12.5508 95.9165 12.8656 95.9165 13.2786C95.9165 13.5738 96.0168 13.8098 96.2361 13.9868C96.435 14.1639 96.7144 14.3214 97.0336 14.4197C97.3528 14.518 97.7923 14.6361 98.3507 14.7738C99.1083 14.9508 99.7269 15.1279 100.206 15.3049C100.685 15.482 101.104 15.7771 101.443 16.1508C101.781 16.5246 101.962 17.0558 101.962 17.7049C101.962 18.2558 101.802 18.7672 101.503 19.2197C101.203 19.6721 100.725 20.0262 100.106 20.3016C99.4878 20.5771 98.7299 20.6951 97.8322 20.6951C97.0738 20.6558 96.2961 20.5574 95.5776 20.3214ZM110.759 17.2524H104.655C104.754 17.8229 105.033 18.2558 105.493 18.5902C105.951 18.9246 106.51 19.082 107.168 19.082C108.026 19.082 108.724 18.8065 109.283 18.2558L110.26 19.3574C109.901 19.7705 109.463 20.0853 108.943 20.282C108.405 20.4984 107.807 20.5967 107.128 20.5967C106.27 20.5967 105.513 20.4197 104.874 20.0853C104.216 19.7508 103.717 19.2786 103.358 18.6885C102.999 18.0984 102.82 17.4098 102.82 16.6623C102.82 15.9147 102.999 15.2459 103.338 14.6361C103.677 14.0459 104.156 13.5738 104.774 13.2394C105.393 12.9049 106.071 12.7279 106.849 12.7279C107.607 12.7279 108.285 12.8853 108.883 13.2197C109.482 13.5541 109.941 14.0065 110.281 14.6164C110.62 15.2065 110.779 15.9147 110.779 16.682C110.779 16.8394 110.779 17.0164 110.759 17.2524ZM105.373 14.7147C104.974 15.0492 104.734 15.5016 104.635 16.0721H109.044C108.964 15.5214 108.724 15.0688 108.325 14.7147C107.927 14.3606 107.427 14.2033 106.849 14.2033C106.27 14.2033 105.772 14.3606 105.373 14.7147ZM117.722 13.5738C118.32 14.1246 118.64 14.9312 118.64 16.0132V20.4984H116.923V19.5738C116.704 19.9082 116.385 20.1639 115.966 20.3409C115.547 20.518 115.049 20.6164 114.47 20.6164C113.892 20.6164 113.372 20.518 112.934 20.3214C112.495 20.1246 112.155 19.8492 111.916 19.4951C111.677 19.1409 111.557 18.7476 111.557 18.3147C111.557 17.6262 111.817 17.0754 112.335 16.6623C112.854 16.2492 113.672 16.0328 114.789 16.0328H116.824V15.9147C116.824 15.3836 116.664 14.9705 116.345 14.6754C116.026 14.3803 115.527 14.2426 114.888 14.2426C114.45 14.2426 114.031 14.3016 113.592 14.4394C113.173 14.5771 112.814 14.7541 112.515 14.9902L111.797 13.6918C112.195 13.3771 112.695 13.1606 113.273 12.9836C113.851 12.8262 114.45 12.7476 115.088 12.7476C116.246 12.7672 117.123 13.0229 117.722 13.5738ZM116.065 19.0033C116.425 18.8065 116.664 18.5115 116.824 18.118V17.2328H114.948C113.892 17.2328 113.372 17.5672 113.372 18.2558C113.372 18.5902 113.512 18.8459 113.771 19.0229C114.031 19.2197 114.39 19.318 114.868 19.318C115.308 19.318 115.706 19.2 116.065 19.0033ZM125.023 12.7672V14.4786C124.864 14.4591 124.724 14.4394 124.604 14.4394C123.886 14.4394 123.347 14.6361 122.948 15.0492C122.549 15.4623 122.35 16.0524 122.35 16.8V20.518H120.534V12.8459H122.27V13.9672C122.769 13.1606 123.687 12.7672 125.023 12.7672ZM127.537 20.1049C126.898 19.7705 126.399 19.2984 126.041 18.7082C125.682 18.118 125.502 17.4295 125.502 16.682C125.502 15.9344 125.682 15.2459 126.041 14.6558C126.399 14.0656 126.898 13.5935 127.537 13.259C128.175 12.9246 128.893 12.7476 129.711 12.7476C130.469 12.7476 131.148 12.9049 131.726 13.2C132.305 13.5147 132.743 13.9476 133.023 14.518L131.626 15.3246C131.407 14.9705 131.128 14.6951 130.789 14.518C130.449 14.3409 130.09 14.2426 129.691 14.2426C129.013 14.2426 128.455 14.4591 127.995 14.8918C127.557 15.3246 127.317 15.9147 127.317 16.6426C127.317 17.3705 127.537 17.9606 127.975 18.3935C128.415 18.8262 128.973 19.0426 129.671 19.0426C130.07 19.0426 130.43 18.9442 130.769 18.7672C131.108 18.5902 131.387 18.3344 131.607 17.9606L133.003 18.7672C132.703 19.3377 132.265 19.7902 131.686 20.1049C131.108 20.4197 130.449 20.5771 129.691 20.5771C128.913 20.6164 128.175 20.4394 127.537 20.1049ZM141.002 13.6132C141.601 14.1836 141.9 15.0098 141.9 16.1312V20.518H140.084V16.3476C140.084 15.6786 139.925 15.1672 139.606 14.8328C139.287 14.4984 138.828 14.3214 138.23 14.3214C137.551 14.3214 137.033 14.518 136.633 14.9115C136.254 15.3049 136.055 15.8754 136.055 16.6229V20.4984H134.24V9.85576H136.055V13.7312C136.354 13.4164 136.734 13.1803 137.172 13.0033C137.612 12.8459 138.11 12.7476 138.648 12.7476C139.626 12.7672 140.424 13.0426 141.002 13.6132Z" fill="#456EFF"/>
<path d="M53.4845 24.6096H52.7463C52.7261 24.4718 52.6665 24.3538 52.5868 24.2555C52.5068 24.1571 52.4073 24.0785 52.3075 23.9997C52.1879 23.9211 52.068 23.8817 51.9283 23.8424C51.7886 23.803 51.6489 23.7834 51.4895 23.7834C51.2102 23.7834 50.9509 23.8424 50.7316 23.9604C50.5118 24.0785 50.3323 24.2555 50.2127 24.4718C50.0931 24.6883 50.013 24.9637 50.013 25.2982C50.013 25.6326 50.073 25.9079 50.2127 26.1244C50.3323 26.3408 50.5118 26.5178 50.7316 26.6358C50.9509 26.7538 51.2102 26.8129 51.4694 26.8129C51.6292 26.8129 51.7689 26.7932 51.9086 26.7538C52.0479 26.7145 52.1678 26.6752 52.2874 26.5965C52.4073 26.5374 52.487 26.4391 52.5667 26.3408C52.6464 26.2424 52.7064 26.1244 52.7261 26.0064H53.4644C53.4245 26.203 53.3448 26.3801 53.245 26.5571C53.1254 26.7145 52.9858 26.8718 52.8062 26.9899C52.6267 27.1079 52.427 27.2064 52.2077 27.2653C51.9883 27.3244 51.729 27.3637 51.4694 27.3637C51.0508 27.3637 50.6716 27.285 50.3524 27.1079C50.0332 26.9506 49.7739 26.6948 49.5743 26.3997C49.3947 26.085 49.2949 25.7309 49.2949 25.2982C49.2949 24.8653 49.3947 24.4915 49.5743 24.1965C49.7739 23.8817 50.013 23.6456 50.3524 23.4883C50.6716 23.3309 51.0508 23.2326 51.4694 23.2326C51.729 23.2326 51.9682 23.2718 52.1879 23.3309C52.4073 23.3899 52.6066 23.4883 52.7861 23.6064C52.9656 23.7244 53.1053 23.862 53.2253 24.0391C53.3646 24.1965 53.4447 24.3932 53.4845 24.6096Z" fill="#456EFF"/>
<path d="M55.8385 27.3835C55.4992 27.3835 55.2001 27.3245 54.9409 27.1868C54.6813 27.049 54.482 26.872 54.3423 26.636C54.2026 26.3999 54.1229 26.1245 54.1229 25.8098C54.1229 25.495 54.2026 25.2196 54.3423 24.9835C54.482 24.7475 54.6813 24.5704 54.9409 24.4326C55.2001 24.295 55.4992 24.236 55.8385 24.236C56.1775 24.236 56.477 24.295 56.7362 24.4326C56.9954 24.5704 57.1951 24.7475 57.3348 24.9835C57.4744 25.2196 57.5541 25.495 57.5541 25.8098C57.5541 26.1245 57.4744 26.3999 57.3348 26.636C57.1951 26.872 56.9954 27.049 56.7362 27.1868C56.477 27.3245 56.1775 27.3835 55.8385 27.3835ZM55.8385 26.8917C56.0579 26.8917 56.2375 26.8524 56.3972 26.754C56.5365 26.6556 56.6565 26.5376 56.7161 26.3605C56.7962 26.2031 56.8159 26.0261 56.8159 25.8294C56.8159 25.6326 56.776 25.4556 56.7161 25.2982C56.6364 25.1408 56.5365 25.0031 56.3972 24.9048C56.2576 24.8064 56.078 24.7475 55.8385 24.7475C55.6192 24.7475 55.4396 24.7868 55.2798 24.9048C55.1401 25.0031 55.0206 25.1408 54.9606 25.2982C54.8809 25.4556 54.8612 25.6326 54.8612 25.8294C54.8612 26.0261 54.9006 26.2031 54.9606 26.3605C55.0407 26.518 55.1401 26.6556 55.2798 26.754C55.4396 26.8524 55.6192 26.8917 55.8385 26.8917Z" fill="#456EFF"/>
<path d="M59.8683 27.3835C59.5294 27.3835 59.2299 27.3245 58.9707 27.1868C58.7114 27.049 58.5118 26.872 58.3721 26.636C58.2324 26.3999 58.1527 26.1245 58.1527 25.8098C58.1527 25.495 58.2324 25.2196 58.3721 24.9835C58.5118 24.7475 58.7114 24.5704 58.9707 24.4326C59.2299 24.295 59.5294 24.236 59.8683 24.236C60.2076 24.236 60.5067 24.295 60.766 24.4326C61.0252 24.5704 61.2249 24.7475 61.3645 24.9835C61.5042 25.2196 61.5839 25.495 61.5839 25.8098C61.5839 26.1245 61.5042 26.3999 61.3645 26.636C61.2249 26.872 61.0252 27.049 60.766 27.1868C60.5067 27.3245 60.2076 27.3835 59.8683 27.3835ZM59.8683 26.8917C60.0877 26.8917 60.2672 26.8524 60.427 26.754C60.5667 26.6556 60.6863 26.5376 60.7462 26.3605C60.8259 26.2031 60.8457 26.0261 60.8457 25.8294C60.8457 25.6326 60.8058 25.4556 60.7462 25.2982C60.6661 25.1408 60.5667 25.0031 60.427 24.9048C60.2873 24.8064 60.1078 24.7475 59.8683 24.7475C59.6489 24.7475 59.4694 24.7868 59.3096 24.9048C59.1699 25.0031 59.0504 25.1408 58.9904 25.2982C58.9107 25.4556 58.891 25.6326 58.891 25.8294C58.891 26.0261 58.9308 26.2031 58.9904 26.3605C59.0705 26.518 59.1699 26.6556 59.3096 26.754C59.4694 26.8524 59.6489 26.8917 59.8683 26.8917Z" fill="#456EFF"/>
<path d="M65.1749 23.1737L65.474 23.5475C65.3742 23.6261 65.2345 23.6852 65.0948 23.7246C64.9552 23.7638 64.7957 23.7836 64.6162 23.7836C64.4367 23.7836 64.237 23.8032 63.9975 23.8032C63.7383 23.8032 63.5189 23.8623 63.3595 23.941C63.1997 24.0196 63.06 24.1573 62.9602 24.3344C62.8607 24.5114 62.8008 24.7081 62.7807 24.9638H62.8209C62.9405 24.7672 63.1003 24.6294 63.3196 24.5508C63.539 24.4524 63.7584 24.4131 64.0378 24.4131C64.3369 24.4131 64.5961 24.472 64.8159 24.5901C65.0352 24.7081 65.2345 24.8655 65.3545 25.0819C65.4941 25.2984 65.5537 25.554 65.5537 25.8688C65.5537 26.1835 65.4941 26.459 65.3545 26.6754C65.2148 26.9114 65.0151 27.0885 64.7756 27.2065C64.5164 27.3246 64.237 27.3836 63.8981 27.3836C63.5588 27.3836 63.2597 27.3246 63.0202 27.1868C62.7807 27.0491 62.5814 26.872 62.4417 26.6164C62.302 26.3606 62.2421 26.0458 62.2421 25.6917V25.3967C62.2421 24.7081 62.3817 24.177 62.6812 23.8426C62.9803 23.5081 63.4191 23.3114 64.0176 23.3114C64.2173 23.3114 64.3767 23.3114 64.5365 23.3114C64.6959 23.3114 64.8159 23.3114 64.9354 23.2917C65.0151 23.272 65.0948 23.2328 65.1749 23.1737ZM63.8981 26.8917C64.0974 26.8917 64.2571 26.8524 64.4166 26.7737C64.5562 26.695 64.6762 26.577 64.7559 26.4196C64.8356 26.2623 64.8754 26.0852 64.8754 25.8688C64.8754 25.672 64.8356 25.495 64.7559 25.3376C64.6762 25.1999 64.5764 25.0819 64.4166 25.0032C64.2769 24.9246 64.0974 24.8852 63.8981 24.8852C63.7584 24.8852 63.6187 24.9049 63.4992 24.9442C63.3792 24.9835 63.2798 25.0426 63.1997 25.141C63.12 25.2196 63.06 25.318 63.0004 25.436C62.9405 25.554 62.9405 25.6917 62.9203 25.8491C62.9203 26.1638 63.0004 26.3999 63.18 26.5967C63.3595 26.8131 63.5986 26.8917 63.8981 26.8917Z" fill="#456EFF"/>
<path d="M66.3717 24.3145H67.0701V26.8326H68.3268V24.3145H69.0248V26.8326H70.2819V24.3145H70.9799V27.3441H66.3918V24.3145H66.3717ZM71.5785 26.813L71.5185 28.19H70.8205V27.3244H70.3616V26.813H71.5785Z" fill="#456EFF"/>
<path d="M73.9127 27.3835C73.5537 27.3835 73.2542 27.3245 72.995 27.1868C72.7357 27.049 72.5361 26.872 72.3964 26.636C72.2567 26.3999 72.177 26.1245 72.177 25.8098C72.177 25.495 72.2567 25.2196 72.3964 24.9835C72.5361 24.7475 72.7357 24.5704 72.9748 24.4326C73.2345 24.295 73.5134 24.236 73.8528 24.236C74.0524 24.236 74.2517 24.2556 74.4513 24.3146C74.6506 24.3737 74.8104 24.4524 74.9698 24.5704C75.1296 24.6884 75.2492 24.8458 75.3289 25.0425C75.409 25.2392 75.4685 25.4754 75.4685 25.7507V25.9671H72.5759V25.5343H74.7705C74.7705 25.3769 74.7307 25.2392 74.6506 25.1212C74.5709 25.0031 74.4711 24.9048 74.3318 24.8458C74.1917 24.7868 74.0323 24.7475 73.8528 24.7475C73.6531 24.7475 73.4736 24.7868 73.3339 24.8655C73.1946 24.9442 73.0747 25.0425 72.995 25.1802C72.9152 25.318 72.8754 25.4556 72.8754 25.5934V25.9475C72.8754 26.1442 72.9152 26.3212 72.995 26.4589C73.0747 26.5966 73.1946 26.7146 73.354 26.7737C73.5134 26.8524 73.6933 26.8917 73.8926 26.8917C74.0323 26.8917 74.1518 26.872 74.2517 26.8524C74.3716 26.813 74.4513 26.7737 74.531 26.7146C74.6107 26.6556 74.6707 26.5769 74.7106 26.4786L75.3888 26.5769C75.3289 26.7343 75.2294 26.8917 75.1095 27.0098C74.9698 27.1278 74.7903 27.2261 74.591 27.3048C74.4115 27.3638 74.172 27.3835 73.9127 27.3835Z" fill="#456EFF"/>
<path d="M77.8028 27.3836C77.4437 27.3836 77.1443 27.3245 76.885 27.1868C76.6258 27.0491 76.4463 26.872 76.3066 26.636C76.1669 26.3999 76.1069 26.1245 76.1069 25.8294C76.1069 25.5146 76.1669 25.259 76.3066 25.0229C76.4463 24.7868 76.6455 24.6098 76.885 24.472C77.1443 24.3343 77.4437 24.2754 77.7827 24.2754C78.062 24.2754 78.3015 24.3146 78.5209 24.3934C78.7403 24.472 78.9198 24.5901 79.0394 24.7475C79.1594 24.9049 79.2592 25.0819 79.2789 25.2786H78.5809C78.5407 25.141 78.461 25.0229 78.3213 24.9049C78.1816 24.8064 78.0021 24.7475 77.7827 24.7475C77.5834 24.7475 77.4035 24.7868 77.2642 24.8852C77.1245 24.9835 77.0046 25.1016 76.9249 25.259C76.8452 25.4163 76.8053 25.6131 76.8053 25.8098C76.8053 26.0261 76.8452 26.2229 76.9249 26.3802C77.0046 26.5376 77.1245 26.6557 77.2642 26.754C77.4035 26.8327 77.5834 26.8917 77.7827 26.8917C77.9224 26.8917 78.0423 26.872 78.1417 26.8327C78.2416 26.7934 78.3414 26.7343 78.4211 26.6557C78.5008 26.577 78.5407 26.4786 78.5809 26.3802H79.2789C79.2592 26.577 79.1791 26.754 79.0394 26.9114C78.9198 27.0688 78.7403 27.1868 78.5209 27.2655C78.3414 27.3442 78.1019 27.3836 77.8028 27.3836Z" fill="#456EFF"/>
<path d="M79.8776 24.8064V24.295H82.9497V24.8064H81.7727V27.3245H81.0747V24.8064H79.8776Z" fill="#456EFF"/>
<path d="M83.708 27.3245V24.295H85.224C85.643 24.295 85.9622 24.3737 86.2017 24.5114C86.4408 24.6491 86.5608 24.8458 86.5608 25.1016C86.5608 25.2786 86.5008 25.4163 86.3611 25.5147C86.2215 25.6131 86.0419 25.6917 85.8225 25.7311C85.9823 25.7508 86.1417 25.7901 86.2613 25.8491C86.401 25.9081 86.5008 26.0064 86.5805 26.1049C86.6606 26.2229 86.7005 26.341 86.7005 26.4982C86.7005 26.6557 86.6606 26.7934 86.5608 26.9311C86.461 27.0491 86.3213 27.1475 86.122 27.2261C85.9421 27.3049 85.703 27.3245 85.4437 27.3245H83.708ZM84.3662 25.5737H85.224C85.3636 25.5737 85.4635 25.554 85.5633 25.5343C85.6631 25.495 85.7227 25.4556 85.7827 25.3967C85.8427 25.3376 85.8624 25.2786 85.8624 25.1802C85.8624 25.0622 85.8028 24.9638 85.6829 24.9049C85.5633 24.8458 85.4035 24.8064 85.2042 24.8064H84.3662V25.5737ZM84.3662 26.8328H85.4437C85.6233 26.8328 85.7626 26.7934 85.8624 26.7343C85.9622 26.6556 86.0021 26.577 86.0021 26.459C86.0021 26.3212 85.9622 26.2032 85.8624 26.1245C85.7626 26.0458 85.6233 26.0064 85.4437 26.0064H84.3662V26.8328Z" fill="#456EFF"/>
<path d="M89.0343 27.3835C88.695 27.3835 88.3959 27.3245 88.1367 27.1868C87.8774 27.049 87.6778 26.872 87.5381 26.636C87.3984 26.3999 87.3187 26.1245 87.3187 25.8098C87.3187 25.495 87.3984 25.2196 87.5381 24.9835C87.6778 24.7475 87.8774 24.5704 88.1367 24.4326C88.3959 24.295 88.695 24.236 89.0343 24.236C89.3733 24.236 89.6728 24.295 89.932 24.4326C90.1916 24.5704 90.3909 24.7475 90.5306 24.9835C90.6702 25.2196 90.7499 25.495 90.7499 25.8098C90.7499 26.1245 90.6702 26.3999 90.5306 26.636C90.3909 26.872 90.1916 27.049 89.932 27.1868C89.6728 27.3245 89.3733 27.3835 89.0343 27.3835ZM89.0343 26.8917C89.2537 26.8917 89.4333 26.8524 89.593 26.754C89.7327 26.6556 89.8523 26.5376 89.9123 26.3605C89.992 26.2031 90.0117 26.0261 90.0117 25.8294C90.0117 25.6326 89.9718 25.4556 89.9123 25.2982C89.8322 25.1408 89.7327 25.0031 89.593 24.9048C89.4534 24.8064 89.2738 24.7475 89.0343 24.7475C88.815 24.7475 88.6354 24.7868 88.4756 24.9048C88.3359 25.0031 88.2164 25.1408 88.1564 25.2982C88.0767 25.4556 88.057 25.6326 88.057 25.8294C88.057 26.0261 88.0968 26.2031 88.1564 26.3605C88.2365 26.518 88.3359 26.6556 88.4756 26.754C88.6153 26.8524 88.7948 26.8917 89.0343 26.8917Z" fill="#456EFF"/>
<path d="M92.9442 28.2096V26.8326H93.2433C93.323 26.7736 93.383 26.7145 93.443 26.6359C93.5025 26.5572 93.5428 26.4589 93.5826 26.3408C93.6225 26.2228 93.6426 26.1048 93.6821 25.9474C93.7223 25.79 93.7223 25.6326 93.742 25.4359L93.862 24.3145H96.336V26.8326H96.8943V28.2096H96.1959V27.3441H93.6623V28.2096H92.9442ZM94.0017 26.813H95.6174V24.8064H94.4803L94.4006 25.4359C94.3607 25.7507 94.3209 26.026 94.2609 26.2621C94.2211 26.4982 94.1212 26.6752 94.0017 26.813Z" fill="#456EFF"/>
<path d="M99.1083 27.3835C98.7693 27.3835 98.4699 27.3245 98.2106 27.1868C97.9514 27.049 97.7521 26.872 97.6121 26.636C97.4732 26.3999 97.3931 26.1245 97.3931 25.8098C97.3931 25.495 97.4732 25.2196 97.6121 24.9835C97.7521 24.7475 97.9514 24.5704 98.2106 24.4326C98.4699 24.295 98.7693 24.236 99.1083 24.236C99.4476 24.236 99.7471 24.295 100.006 24.4326C100.266 24.5704 100.466 24.7475 100.605 24.9835C100.745 25.2196 100.825 25.495 100.825 25.8098C100.825 26.1245 100.745 26.3999 100.605 26.636C100.466 26.872 100.266 27.049 100.006 27.1868C99.7471 27.3245 99.4476 27.3835 99.1083 27.3835ZM99.1083 26.8917C99.3284 26.8917 99.5076 26.8524 99.667 26.754C99.8071 26.6556 99.927 26.5376 99.9862 26.3605C100.066 26.2031 100.086 26.0261 100.086 25.8294C100.086 25.6326 100.046 25.4556 99.9862 25.2982C99.9073 25.1408 99.8071 25.0031 99.667 24.9048C99.5277 24.8064 99.3486 24.7475 99.1083 24.7475C98.8893 24.7475 98.7101 24.7868 98.55 24.9048C98.4107 25.0031 98.2907 25.1408 98.2308 25.2982C98.1518 25.4556 98.1317 25.6326 98.1317 25.8294C98.1317 26.0261 98.1708 26.2031 98.2308 26.3605C98.3108 26.518 98.4107 26.6556 98.55 26.754C98.7101 26.8524 98.8893 26.8917 99.1083 26.8917Z" fill="#456EFF"/>
<path d="M102.301 24.3145V27.3441H101.602V24.3145H102.301ZM104.076 25.5736V26.0851H102.101V25.5736H104.076ZM104.575 24.3145V27.3441H103.876V24.3145H104.575Z" fill="#456EFF"/>
<path d="M107.069 27.3835C106.729 27.3835 106.43 27.3245 106.171 27.1868C105.912 27.049 105.712 26.872 105.573 26.636C105.433 26.3999 105.352 26.1245 105.352 25.8098C105.352 25.495 105.433 25.2196 105.573 24.9835C105.712 24.7475 105.912 24.5704 106.171 24.4326C106.43 24.295 106.729 24.236 107.069 24.236C107.407 24.236 107.706 24.295 107.966 24.4326C108.226 24.5704 108.425 24.7475 108.565 24.9835C108.704 25.2196 108.784 25.495 108.784 25.8098C108.784 26.1245 108.704 26.3999 108.565 26.636C108.425 26.872 108.226 27.049 107.966 27.1868C107.706 27.3245 107.407 27.3835 107.069 27.3835ZM107.069 26.8917C107.288 26.8917 107.467 26.8524 107.628 26.754C107.766 26.6556 107.887 26.5376 107.947 26.3605C108.026 26.2031 108.046 26.0261 108.046 25.8294C108.046 25.6326 108.006 25.4556 107.947 25.2982C107.867 25.1408 107.766 25.0031 107.628 24.9048C107.487 24.8064 107.308 24.7475 107.069 24.7475C106.849 24.7475 106.669 24.7868 106.509 24.9048C106.37 25.0031 106.25 25.1408 106.191 25.2982C106.111 25.4556 106.091 25.6326 106.091 25.8294C106.091 26.0261 106.131 26.2031 106.191 26.3605C106.27 26.518 106.37 26.6556 106.509 26.754C106.649 26.8524 106.849 26.8917 107.069 26.8917Z" fill="#456EFF"/>
<path d="M109.562 28.4655V24.3146H110.261V24.8064H110.321C110.36 24.7475 110.42 24.6688 110.5 24.5901C110.58 24.5114 110.679 24.4327 110.819 24.3737C110.958 24.3146 111.138 24.2754 111.358 24.2754C111.657 24.2754 111.916 24.3343 112.135 24.4524C112.375 24.5704 112.555 24.7475 112.675 24.9836C112.814 25.2196 112.874 25.495 112.874 25.8294C112.874 26.1638 112.814 26.4393 112.675 26.6754C112.534 26.9114 112.355 27.0884 112.135 27.2064C111.916 27.3245 111.637 27.4032 111.358 27.4032C111.138 27.4032 110.958 27.3638 110.819 27.3049C110.679 27.2458 110.58 27.1672 110.5 27.0884C110.42 27.0098 110.36 26.9311 110.321 26.872H110.281V28.4655H109.562ZM110.261 25.8098C110.261 26.0261 110.301 26.2032 110.38 26.3606C110.46 26.518 110.56 26.636 110.699 26.7343C110.839 26.8327 111.019 26.872 111.219 26.872C111.438 26.872 111.597 26.8327 111.757 26.7343C111.896 26.636 112.016 26.518 112.076 26.3606C112.155 26.2032 112.196 26.0261 112.196 25.8098C112.196 25.6131 112.155 25.436 112.096 25.2786C112.016 25.1212 111.916 25.0032 111.777 24.9049C111.637 24.8064 111.458 24.7672 111.237 24.7672C111.038 24.7672 110.859 24.8064 110.719 24.9049C110.58 24.9836 110.48 25.1212 110.4 25.2786C110.281 25.4163 110.261 25.6131 110.261 25.8098Z" fill="#456EFF"/>
<path d="M115.228 27.3835C114.888 27.3835 114.589 27.3245 114.33 27.1868C114.071 27.049 113.872 26.872 113.732 26.636C113.592 26.3999 113.512 26.1245 113.512 25.8098C113.512 25.495 113.592 25.2196 113.732 24.9835C113.872 24.7475 114.071 24.5704 114.33 24.4326C114.589 24.295 114.888 24.236 115.228 24.236C115.567 24.236 115.866 24.295 116.125 24.4326C116.385 24.5704 116.585 24.7475 116.724 24.9835C116.864 25.2196 116.943 25.495 116.943 25.8098C116.943 26.1245 116.864 26.3999 116.724 26.636C116.585 26.872 116.385 27.049 116.125 27.1868C115.866 27.3245 115.567 27.3835 115.228 27.3835ZM115.228 26.8917C115.447 26.8917 115.627 26.8524 115.786 26.754C115.926 26.6556 116.045 26.5376 116.105 26.3605C116.185 26.2031 116.206 26.0261 116.206 25.8294C116.206 25.6326 116.165 25.4556 116.105 25.2982C116.025 25.1408 115.926 25.0031 115.786 24.9048C115.647 24.8064 115.467 24.7475 115.228 24.7475C115.008 24.7475 114.829 24.7868 114.669 24.9048C114.529 25.0031 114.41 25.1408 114.35 25.2982C114.27 25.4556 114.25 25.6326 114.25 25.8294C114.25 26.0261 114.29 26.2031 114.35 26.3605C114.43 26.518 114.529 26.6556 114.669 26.754C114.809 26.8524 115.008 26.8917 115.228 26.8917Z" fill="#456EFF"/>
<path d="M117.722 27.3245V24.295H119.238C119.657 24.295 119.976 24.3737 120.215 24.5114C120.454 24.6491 120.574 24.8458 120.574 25.1016C120.574 25.2786 120.514 25.4163 120.375 25.5147C120.235 25.6131 120.056 25.6917 119.837 25.7311C119.996 25.7508 120.155 25.7901 120.275 25.8491C120.415 25.9081 120.514 26.0064 120.594 26.1049C120.675 26.2229 120.714 26.341 120.714 26.4982C120.714 26.6557 120.675 26.7934 120.574 26.9311C120.474 27.0491 120.335 27.1475 120.136 27.2261C119.956 27.3049 119.717 27.3245 119.457 27.3245H117.722ZM118.379 25.5737H119.238C119.377 25.5737 119.477 25.554 119.576 25.5343C119.677 25.495 119.737 25.4556 119.797 25.3967C119.856 25.3376 119.876 25.2786 119.876 25.1802C119.876 25.0622 119.817 24.9638 119.696 24.9049C119.576 24.8458 119.417 24.8064 119.218 24.8064H118.379V25.5737ZM118.379 26.8328H119.457C119.636 26.8328 119.776 26.7934 119.876 26.7343C119.976 26.6556 120.016 26.577 120.016 26.459C120.016 26.3212 119.976 26.2032 119.876 26.1245C119.776 26.0458 119.636 26.0064 119.457 26.0064H118.379V26.8328Z" fill="#456EFF"/>
<path d="M123.288 27.3245V24.295H123.986V25.554H124.325L125.521 24.295H126.4L124.983 25.7704L126.4 27.3245H125.521L124.424 26.1245H124.006V27.3245H123.288Z" fill="#456EFF"/>
<path d="M126.999 28.4655V24.3146H127.696V24.8064H127.756C127.796 24.7475 127.856 24.6688 127.935 24.5901C128.015 24.5114 128.115 24.4327 128.255 24.3737C128.395 24.3146 128.574 24.2754 128.794 24.2754C129.092 24.2754 129.352 24.3343 129.572 24.4524C129.811 24.5704 129.99 24.7475 130.11 24.9836C130.25 25.2196 130.309 25.495 130.309 25.8294C130.309 26.1638 130.25 26.4393 130.11 26.6754C129.971 26.9114 129.791 27.0884 129.572 27.2064C129.352 27.3245 129.073 27.4032 128.794 27.4032C128.574 27.4032 128.395 27.3638 128.255 27.3049C128.115 27.2458 128.015 27.1672 127.935 27.0884C127.856 27.0098 127.796 26.9311 127.756 26.872H127.716V28.4655H126.999ZM127.696 25.8098C127.696 26.0261 127.736 26.2032 127.816 26.3606C127.896 26.518 127.995 26.636 128.135 26.7343C128.275 26.8327 128.455 26.872 128.654 26.872C128.873 26.872 129.033 26.8327 129.192 26.7343C129.333 26.636 129.451 26.518 129.512 26.3606C129.592 26.2032 129.632 26.0261 129.632 25.8098C129.632 25.6131 129.592 25.436 129.531 25.2786C129.452 25.1212 129.352 25.0032 129.212 24.9049C129.073 24.8064 128.893 24.7672 128.674 24.7672C128.475 24.7672 128.294 24.8064 128.156 24.9049C128.015 24.9836 127.915 25.1212 127.836 25.2786C127.716 25.4163 127.696 25.6131 127.696 25.8098Z" fill="#456EFF"/>
<path d="M132.664 27.3835C132.325 27.3835 132.026 27.3245 131.766 27.1868C131.506 27.049 131.307 26.872 131.168 26.636C131.028 26.3999 130.948 26.1245 130.948 25.8098C130.948 25.495 131.028 25.2196 131.168 24.9835C131.307 24.7475 131.506 24.5704 131.766 24.4326C132.026 24.295 132.325 24.236 132.664 24.236C133.003 24.236 133.302 24.295 133.562 24.4326C133.821 24.5704 134.021 24.7475 134.161 24.9835C134.3 25.2196 134.38 25.495 134.38 25.8098C134.38 26.1245 134.3 26.3999 134.161 26.636C134.021 26.872 133.821 27.049 133.562 27.1868C133.302 27.3245 133.003 27.3835 132.664 27.3835ZM132.664 26.8917C132.883 26.8917 133.063 26.8524 133.223 26.754C133.362 26.6556 133.482 26.5376 133.542 26.3605C133.621 26.2031 133.641 26.0261 133.641 25.8294C133.641 25.6326 133.601 25.4556 133.542 25.2982C133.462 25.1408 133.362 25.0031 133.223 24.9048C133.083 24.8064 132.903 24.7475 132.664 24.7475C132.444 24.7475 132.265 24.7868 132.105 24.9048C131.966 25.0031 131.846 25.1408 131.786 25.2982C131.706 25.4556 131.686 25.6326 131.686 25.8294C131.686 26.0261 131.726 26.2031 131.786 26.3605C131.866 26.518 131.966 26.6556 132.105 26.754C132.245 26.8524 132.444 26.8917 132.664 26.8917Z" fill="#456EFF"/>
<path d="M135.157 27.3245V24.295H136.674C137.093 24.295 137.412 24.3737 137.651 24.5114C137.891 24.6491 138.01 24.8458 138.01 25.1016C138.01 25.2786 137.951 25.4163 137.811 25.5147C137.672 25.6131 137.492 25.6917 137.272 25.7311C137.431 25.7508 137.591 25.7901 137.711 25.8491C137.851 25.9081 137.951 26.0064 138.03 26.1049C138.11 26.2229 138.15 26.341 138.15 26.4982C138.15 26.6557 138.11 26.7934 138.01 26.9311C137.911 27.0491 137.771 27.1475 137.571 27.2261C137.392 27.3049 137.152 27.3245 136.893 27.3245H135.157ZM135.816 25.5737H136.674C136.813 25.5737 136.913 25.554 137.013 25.5343C137.112 25.495 137.172 25.4556 137.232 25.3967C137.292 25.3376 137.312 25.2786 137.312 25.1802C137.312 25.0622 137.252 24.9638 137.132 24.9049C137.013 24.8458 136.853 24.8064 136.654 24.8064H135.816V25.5737ZM135.816 26.8328H136.893C137.073 26.8328 137.212 26.7934 137.312 26.7343C137.412 26.6556 137.451 26.577 137.451 26.459C137.451 26.3212 137.412 26.2032 137.312 26.1245C137.212 26.0458 137.073 26.0064 136.893 26.0064H135.816V26.8328Z" fill="#456EFF"/>
<path d="M139.646 26.4982L141.242 24.295H142V27.3245H141.301V25.1212L139.706 27.3245H138.927V24.295H139.626V26.4982H139.646Z" fill="#456EFF"/>
</g>
</svg>
