<svg width="122" height="25" viewBox="0 0 122 25" fill="none" xmlns="http://www.w3.org/2000/svg">
<path d="M96.0808 20.7925L96.2993 24.4423C95.713 24.7412 94.2171 24.8885 93.4465 24.8885C89.5878 24.8885 86.8536 22.421 86.744 18.0887H90.8086C90.8712 18.9068 91.242 19.6684 91.8428 20.2141C92.4442 20.7596 93.2292 21.0469 94.0329 21.0156C94.7203 21.0003 95.4054 20.9256 96.0808 20.7925ZM40.8387 24.6296H44.8902V1.54875H40.8387V24.6296ZM76.5933 10.0351C78.5275 10.0351 80.133 11.0033 80.8638 12.4534L84.2939 10.4813C82.981 7.8042 80.0631 6.05071 76.5933 6.05071C75.3634 6.02457 74.1414 6.25227 73 6.72018C71.8593 7.18809 70.8226 7.88652 69.9528 8.77341C69.0829 9.66037 68.3978 10.7175 67.9391 11.8813C67.4804 13.045 67.2571 14.2914 67.2829 15.5454C67.2829 20.9442 71.3385 25 76.6282 25C79.9054 25 82.7275 23.474 84.2807 21.0557L80.8855 18.9319C80.3972 19.6082 79.7537 20.1519 79.0115 20.5152C78.2692 20.8785 77.4511 21.0503 76.6282 21.0156C75.9239 21.0241 75.225 20.8881 74.5736 20.6155C73.9217 20.343 73.3305 19.9395 72.8351 19.4291C72.3396 18.9187 71.9495 18.3119 71.6889 17.6446C71.4282 16.9774 71.3012 16.2635 71.3169 15.5454C71.3169 12.4222 73.5436 10.0351 76.6107 10.0351H76.5933ZM38.5285 14.7289C38.538 13.5805 38.3221 12.4419 37.8934 11.3799C37.4647 10.318 36.8319 9.35422 36.0324 8.54554C35.2328 7.73679 34.2826 7.09945 33.2378 6.67095C32.193 6.24251 31.0747 6.03161 29.9486 6.05071C28.7385 6.03757 27.5379 6.27093 26.4174 6.73719C25.2968 7.20338 24.2788 7.89309 23.423 8.7658C22.5672 9.63845 21.891 10.6766 21.4338 11.8193C20.9766 12.9621 20.7477 14.1864 20.7606 15.4205C20.7385 16.673 20.962 17.9174 21.4181 19.0806C21.8742 20.2438 22.5536 21.3023 23.4165 22.1938C24.2794 23.0854 25.3083 23.7922 26.4429 24.2726C27.5774 24.7529 28.7946 24.9972 30.023 24.991C33.7114 24.991 36.7041 23.5008 38.0167 21.0468L34.7702 18.923C33.9301 20.3374 32.1057 21.2298 30.0974 21.2298C27.2141 21.2298 25.2409 19.4451 24.8033 16.5047H38.3667C38.466 15.9153 38.5143 15.3181 38.5111 14.72L38.5285 14.7289ZM24.939 13.3502C25.5603 10.9676 27.2754 9.47737 29.7211 9.47737C32.1669 9.47737 34.0308 11.0791 34.2495 13.3502H24.939ZM64.9767 14.7289C64.9864 13.5805 64.7702 12.4419 64.3416 11.3799C63.913 10.318 63.2803 9.35422 62.4809 8.54554C61.6814 7.73679 60.7309 7.09945 59.6863 6.67095C58.6414 6.24251 57.5231 6.03161 56.3971 6.05071C55.187 6.03757 53.9864 6.27093 52.8658 6.73719C51.7452 7.20338 50.7273 7.89309 49.8715 8.7658C49.0157 9.63845 48.3394 10.6766 47.8822 11.8193C47.4251 12.9621 47.1962 14.1864 47.2091 15.4205C47.1863 16.6732 47.4094 17.9179 47.8653 19.0813C48.3212 20.2448 49.0006 21.3035 49.8636 22.1952C50.7267 23.0869 51.7558 23.7936 52.8906 24.2738C54.0254 24.754 55.2429 24.9978 56.4715 24.991C60.1599 24.991 63.1527 23.5008 64.465 21.0468L61.2143 18.923C60.3787 20.3374 58.5497 21.2298 56.5459 21.2298C53.6582 21.2298 51.6893 19.4451 51.2518 16.5047H64.8154C64.9159 15.9154 64.9653 15.3182 64.9641 14.72L64.9767 14.7289ZM51.4006 13.3458C52.0218 10.9632 53.737 9.47289 56.1827 9.47289C58.6285 9.47289 60.4925 11.0747 60.711 13.3458H51.4006ZM115.638 14.7289C115.647 13.5809 115.431 12.4427 115.002 11.3813C114.573 10.3198 113.94 9.35668 113.141 8.54842C112.341 7.74017 111.391 7.10319 110.346 6.675C109.302 6.24687 108.184 6.03609 107.058 6.05517C105.848 6.04264 104.648 6.27646 103.527 6.7429C102.407 7.20933 101.39 7.89904 100.534 8.77157C99.6783 9.64416 99.0023 10.6821 98.5448 11.8245C98.0872 12.967 97.8579 14.191 97.8699 15.425C97.8489 16.6771 98.0728 17.921 98.5291 19.0837C98.9854 20.2463 99.6651 21.3043 100.528 22.1954C101.39 23.0866 102.419 23.7929 103.553 24.273C104.687 24.753 105.905 24.9972 107.133 24.991C110.817 24.991 113.814 23.5008 115.127 21.0468L111.875 18.923C111.035 20.3374 109.211 21.2298 107.203 21.2298C104.32 21.2298 102.351 19.4451 101.913 16.5047H115.476C115.577 15.9154 115.627 15.3182 115.625 14.72L115.638 14.7289ZM102.062 13.3458C102.683 10.9632 104.398 9.47289 106.844 9.47289C109.29 9.47289 111.149 11.0747 111.373 13.3458H102.062ZM117.948 24.6252H122V1.54875H117.948V24.6252ZM13.4583 20.3552C12.4035 21.0021 11.1884 21.3258 9.95808 21.2878C8.5965 21.3195 7.26081 20.9051 6.14726 20.1054C5.06678 19.2996 4.31216 18.1191 4.02524 16.7858L0 17.406C0.212033 18.8704 0.792366 20.2539 1.68448 21.4216C2.58253 22.5786 3.75371 23.4843 5.08843 24.0541C6.56166 24.6907 8.14814 25.0097 9.7481 24.991C11.3144 25.0076 12.8693 24.7183 14.329 24.1388C15.6573 23.6229 16.818 22.739 17.6804 21.5867C18.4244 20.5718 18.8554 19.3541 18.9186 18.0887H14.8977C14.8565 18.5573 14.7038 19.0086 14.453 19.4036C14.2022 19.7985 13.8608 20.1251 13.4583 20.3552ZM90.7821 16.5136H86.7308V10.3697V1.54875H90.7821V6.42551H96.1157V10.3697H90.7821V16.5136ZM17.9386 13.9838C17.3378 13.1577 16.5476 12.4943 15.6372 12.0519C14.6752 11.6057 13.6786 11.2415 12.6576 10.9632L8.43987 9.7317C7.54983 9.52992 6.69844 9.18018 5.91973 8.69655C5.61391 8.49796 5.36502 8.22042 5.19828 7.89211C5.03154 7.5638 4.95289 7.19638 4.9703 6.82706C4.96818 6.21697 5.18978 5.62817 5.59159 5.17619C6.04359 4.6743 6.61241 4.2968 7.2454 4.07859C7.9528 3.81707 8.70305 3.69738 9.45494 3.72611C10.6549 3.72731 11.8231 4.11972 12.7889 4.84602C13.7365 5.5505 14.3906 6.59169 14.6221 7.76405L18.7742 7.06353C18.4752 5.67361 17.8658 4.37275 16.9935 3.26208C16.147 2.21005 15.0568 1.38966 13.8215 0.875015C12.456 0.305919 10.9957 0.0105155 9.52055 0.0049637C8.01637 -0.0404952 6.5188 0.226685 5.11905 0.790242C3.8976 1.28164 2.83631 2.11346 2.05637 3.19069C1.28115 4.30457 0.880515 5.64452 0.914431 7.01C0.914431 8.85715 1.41613 10.2314 2.41952 11.1327C3.49894 12.0749 4.7756 12.7526 6.15159 13.1137L12.2507 14.952C13.0005 15.1515 13.6913 15.5344 14.2634 16.0675C14.3865 16.2041 14.495 16.3536 14.5871 16.5136H18.8792C18.7956 15.5992 18.4705 14.7249 17.9386 13.9838Z" fill="#FB73C4"/>
</svg>
